<?xml version="1.0" encoding="us-ascii" standalone="no"?><svg xmlns="http://www.w3.org/2000/svg" xmlns:xlink="http://www.w3.org/1999/xlink" contentStyleType="text/css" height="614px" preserveAspectRatio="none" style="width:1747px;height:614px;background:#FFFFFF;" version="1.1" viewBox="0 0 1747 614" width="1747px" zoomAndPan="magnify"><defs/><g><!--class Program--><g id="elem_Program"><rect codeLine="1" fill="#F1F1F1" height="118.4375" id="Program" rx="2.5" ry="2.5" style="stroke:#181818;stroke-width:0.5;" width="374" x="7" y="7"/><ellipse cx="162.75" cy="23" fill="#ADD1B2" rx="11" ry="11" style="stroke:#181818;stroke-width:1.0;"/><path d="M165.5156,18.875 Q165.6719,18.6563 165.8594,18.5469 Q166.0469,18.4375 166.2656,18.4375 Q166.6406,18.4375 166.875,18.7031 Q167.1094,18.9531 167.1094,19.5625 L167.1094,21.0156 Q167.1094,21.625 166.875,21.8906 Q166.6406,22.1563 166.2656,22.1563 Q165.9219,22.1563 165.7188,21.9531 Q165.5156,21.7656 165.4063,21.25 Q165.3594,20.8906 165.1719,20.7031 Q164.8438,20.3281 164.2344,20.1094 Q163.625,19.8906 163,19.8906 Q162.2344,19.8906 161.5938,20.2188 Q160.9688,20.5469 160.4688,21.2969 Q159.9844,22.0469 159.9844,23.0781 L159.9844,24.1719 Q159.9844,25.4063 160.875,26.2344 Q161.7656,27.0469 163.3594,27.0469 Q164.2969,27.0469 164.9531,26.7969 Q165.3438,26.6406 165.7656,26.2031 Q166.0313,25.9375 166.1719,25.8594 Q166.3281,25.7813 166.5313,25.7813 Q166.8594,25.7813 167.1094,26.0469 Q167.375,26.2969 167.375,26.6406 Q167.375,26.9844 167.0313,27.3906 Q166.5313,27.9688 165.7344,28.2969 Q164.6563,28.75 163.3594,28.75 Q161.8438,28.75 160.6406,28.125 Q159.6563,27.625 158.9688,26.5625 Q158.2813,25.4844 158.2813,24.2031 L158.2813,23.0469 Q158.2813,21.7188 158.8906,20.5781 Q159.5156,19.4219 160.6094,18.8125 Q161.7031,18.1875 162.9375,18.1875 Q163.6719,18.1875 164.3125,18.3594 Q164.9688,18.5156 165.5156,18.875 Z " fill="#000000"/><text fill="#000000" font-family="sans-serif" font-size="14" lengthAdjust="spacing" textLength="54" x="183.25" y="28.7285">Program</text><line style="stroke:#181818;stroke-width:0.5;" x1="8" x2="380" y1="39" y2="39"/><line style="stroke:#181818;stroke-width:0.5;" x1="8" x2="380" y1="47" y2="47"/><rect fill="#F24D5C" height="6" style="stroke:#C82930;stroke-width:1.0;" width="6" x="15" y="58.3047"/><text fill="#000000" font-family="sans-serif" font-size="14" lengthAdjust="spacing" text-decoration="underline" textLength="78" x="27" y="65.5332">Main() : void</text><rect fill="#F24D5C" height="6" style="stroke:#C82930;stroke-width:1.0;" width="6" x="15" y="75.9141"/><text fill="#000000" font-family="sans-serif" font-size="14" lengthAdjust="spacing" text-decoration="underline" textLength="239" x="27" y="83.1426">PopulateBasket(basket:IBasket) : void</text><rect fill="#F24D5C" height="6" style="stroke:#C82930;stroke-width:1.0;" width="6" x="15" y="93.5234"/><text fill="#000000" font-family="sans-serif" font-size="14" lengthAdjust="spacing" text-decoration="underline" textLength="348" x="27" y="100.752">RemoveItemsUntil(basket:IBasket, targetPrice:int) : void</text><rect fill="#F24D5C" height="6" style="stroke:#C82930;stroke-width:1.0;" width="6" x="15" y="111.1328"/><text fill="#000000" font-family="sans-serif" font-size="14" lengthAdjust="spacing" text-decoration="underline" textLength="212" x="27" y="118.3613">PrintBasket(basket:IBasket) : void</text></g><!--class BasketFactory--><g id="elem_BasketFactory"><rect codeLine="8" fill="#F1F1F1" height="65.6094" id="BasketFactory" rx="2.5" ry="2.5" style="stroke:#181818;stroke-width:0.5;" width="139" x="416.5" y="33"/><ellipse cx="438.25" cy="49" fill="#A9DCDF" rx="11" ry="11" style="stroke:#181818;stroke-width:1.0;"/><path d="M440.4375,50.7656 L436.2969,50.7656 L435.875,51.7969 L436.2969,51.7969 Q436.9063,51.7969 437.1719,52.0313 Q437.4375,52.2656 437.4375,52.6563 Q437.4375,53.0313 437.1719,53.2656 Q436.9063,53.5 436.2969,53.5 L434,53.5 Q433.3906,53.5 433.1406,53.2656 Q432.875,53.0313 432.875,52.6406 Q432.875,52.2656 433.1563,52.0313 Q433.4219,51.7813 434.0469,51.7969 L436.7188,45.1406 L435.6094,45.1406 Q435,45.1406 434.7344,44.9063 Q434.4688,44.6719 434.4688,44.2813 Q434.4688,43.9063 434.7344,43.6719 Q435,43.4375 435.6094,43.4375 L439.2813,43.4375 L442.6719,51.7969 Q443.2656,51.7969 443.4531,51.9375 Q443.8438,52.2031 443.8438,52.6563 Q443.8438,53.0313 443.5781,53.2656 Q443.3281,53.5 442.7188,53.5 L440.4219,53.5 Q439.8125,53.5 439.5469,53.2656 Q439.2813,53.0313 439.2813,52.6406 Q439.2813,52.2656 439.5469,52.0313 Q439.8125,51.7969 440.4219,51.7969 L440.8438,51.7969 L440.4375,50.7656 Z M439.7188,49.0625 L438.3594,45.6875 L436.9844,49.0625 L439.7188,49.0625 Z " fill="#000000"/><text fill="#000000" font-family="sans-serif" font-size="14" font-style="italic" lengthAdjust="spacing" textLength="92" x="453.75" y="54.7285">BasketFactory</text><line style="stroke:#181818;stroke-width:0.5;" x1="417.5" x2="554.5" y1="65" y2="65"/><line style="stroke:#181818;stroke-width:0.5;" x1="417.5" x2="554.5" y1="73" y2="73"/><ellipse cx="427.5" cy="87.3047" fill="#84BE84" rx="3" ry="3" style="stroke:#038048;stroke-width:1.0;"/><text fill="#000000" font-family="sans-serif" font-size="14" font-style="italic" lengthAdjust="spacing" textLength="113" x="436.5" y="91.5332">Create() : IBasket</text></g><!--class BasketItem--><g id="elem_BasketItem"><rect codeLine="11" fill="#F1F1F1" height="65.6094" id="BasketItem" rx="2.5" ry="2.5" style="stroke:#181818;stroke-width:0.5;" width="170" x="1459" y="33"/><ellipse cx="1505.25" cy="49" fill="#ADD1B2" rx="11" ry="11" style="stroke:#181818;stroke-width:1.0;"/><path d="M1508.0156,44.875 Q1508.1719,44.6563 1508.3594,44.5469 Q1508.5469,44.4375 1508.7656,44.4375 Q1509.1406,44.4375 1509.375,44.7031 Q1509.6094,44.9531 1509.6094,45.5625 L1509.6094,47.0156 Q1509.6094,47.625 1509.375,47.8906 Q1509.1406,48.1563 1508.7656,48.1563 Q1508.4219,48.1563 1508.2188,47.9531 Q1508.0156,47.7656 1507.9063,47.25 Q1507.8594,46.8906 1507.6719,46.7031 Q1507.3438,46.3281 1506.7344,46.1094 Q1506.125,45.8906 1505.5,45.8906 Q1504.7344,45.8906 1504.0938,46.2188 Q1503.4688,46.5469 1502.9688,47.2969 Q1502.4844,48.0469 1502.4844,49.0781 L1502.4844,50.1719 Q1502.4844,51.4063 1503.375,52.2344 Q1504.2656,53.0469 1505.8594,53.0469 Q1506.7969,53.0469 1507.4531,52.7969 Q1507.8438,52.6406 1508.2656,52.2031 Q1508.5313,51.9375 1508.6719,51.8594 Q1508.8281,51.7813 1509.0313,51.7813 Q1509.3594,51.7813 1509.6094,52.0469 Q1509.875,52.2969 1509.875,52.6406 Q1509.875,52.9844 1509.5313,53.3906 Q1509.0313,53.9688 1508.2344,54.2969 Q1507.1563,54.75 1505.8594,54.75 Q1504.3438,54.75 1503.1406,54.125 Q1502.1563,53.625 1501.4688,52.5625 Q1500.7813,51.4844 1500.7813,50.2031 L1500.7813,49.0469 Q1500.7813,47.7188 1501.3906,46.5781 Q1502.0156,45.4219 1503.1094,44.8125 Q1504.2031,44.1875 1505.4375,44.1875 Q1506.1719,44.1875 1506.8125,44.3594 Q1507.4688,44.5156 1508.0156,44.875 Z " fill="#000000"/><text fill="#000000" font-family="sans-serif" font-size="14" lengthAdjust="spacing" textLength="69" x="1525.75" y="54.7285">BasketItem</text><line style="stroke:#181818;stroke-width:0.5;" x1="1460" x2="1628" y1="65" y2="65"/><ellipse cx="1470" cy="79.3047" fill="none" rx="3" ry="3" style="stroke:#038048;stroke-width:1.0;"/><text fill="#000000" font-family="sans-serif" font-size="14" lengthAdjust="spacing" textLength="144" x="1479" y="83.5332">Count : int &#171;get&#187; &#171;set&#187;</text><line style="stroke:#181818;stroke-width:0.5;" x1="1460" x2="1628" y1="90.6094" y2="90.6094"/></g><!--class Item--><g id="elem_Item"><rect codeLine="58" fill="#F1F1F1" height="136.0469" id="Item" rx="2.5" ry="2.5" style="stroke:#181818;stroke-width:0.5;" width="232" x="1428" y="185"/><ellipse cx="1526.25" cy="201" fill="#A9DCDF" rx="11" ry="11" style="stroke:#181818;stroke-width:1.0;"/><path d="M1528.4375,202.7656 L1524.2969,202.7656 L1523.875,203.7969 L1524.2969,203.7969 Q1524.9063,203.7969 1525.1719,204.0313 Q1525.4375,204.2656 1525.4375,204.6563 Q1525.4375,205.0313 1525.1719,205.2656 Q1524.9063,205.5 1524.2969,205.5 L1522,205.5 Q1521.3906,205.5 1521.1406,205.2656 Q1520.875,205.0313 1520.875,204.6406 Q1520.875,204.2656 1521.1563,204.0313 Q1521.4219,203.7813 1522.0469,203.7969 L1524.7188,197.1406 L1523.6094,197.1406 Q1523,197.1406 1522.7344,196.9063 Q1522.4688,196.6719 1522.4688,196.2813 Q1522.4688,195.9063 1522.7344,195.6719 Q1523,195.4375 1523.6094,195.4375 L1527.2813,195.4375 L1530.6719,203.7969 Q1531.2656,203.7969 1531.4531,203.9375 Q1531.8438,204.2031 1531.8438,204.6563 Q1531.8438,205.0313 1531.5781,205.2656 Q1531.3281,205.5 1530.7188,205.5 L1528.4219,205.5 Q1527.8125,205.5 1527.5469,205.2656 Q1527.2813,205.0313 1527.2813,204.6406 Q1527.2813,204.2656 1527.5469,204.0313 Q1527.8125,203.7969 1528.4219,203.7969 L1528.8438,203.7969 L1528.4375,202.7656 Z M1527.7188,201.0625 L1526.3594,197.6875 L1524.9844,201.0625 L1527.7188,201.0625 Z " fill="#000000"/><text fill="#000000" font-family="sans-serif" font-size="14" font-style="italic" lengthAdjust="spacing" textLength="27" x="1546.75" y="206.7285">Item</text><line style="stroke:#181818;stroke-width:0.5;" x1="1429" x2="1659" y1="217" y2="217"/><ellipse cx="1439" cy="231.3047" fill="none" rx="3" ry="3" style="stroke:#038048;stroke-width:1.0;"/><text fill="#000000" font-family="sans-serif" font-size="14" lengthAdjust="spacing" textLength="99" x="1448" y="235.5332">Price : int &#171;get&#187;</text><ellipse cx="1439" cy="248.9141" fill="none" rx="3" ry="3" style="stroke:#038048;stroke-width:1.0;"/><text fill="#000000" font-family="sans-serif" font-size="14" lengthAdjust="spacing" textLength="123" x="1448" y="253.1426">Name : string &#171;get&#187;</text><ellipse cx="1439" cy="266.5234" fill="none" rx="3" ry="3" style="stroke:#038048;stroke-width:1.0;"/><text fill="#000000" font-family="sans-serif" font-size="14" lengthAdjust="spacing" textLength="78" x="1448" y="270.752">Id : int &#171;get&#187;</text><line style="stroke:#181818;stroke-width:0.5;" x1="1429" x2="1659" y1="277.8281" y2="277.8281"/><polygon fill="#FFFF44" points="1439,287.1328,1443,291.1328,1439,295.1328,1435,291.1328" style="stroke:#B38D22;stroke-width:1.0;"/><text fill="#000000" font-family="sans-serif" font-size="14" lengthAdjust="spacing" textLength="206" x="1448" y="296.3613">Item(price:int, name:string, id:int)</text><ellipse cx="1439" cy="309.7422" fill="#84BE84" rx="3" ry="3" style="stroke:#038048;stroke-width:1.0;"/><text fill="#000000" font-family="sans-serif" font-size="14" lengthAdjust="spacing" textLength="183" x="1448" y="313.9707">&#171;override&#187; ToString() : string</text></g><!--class IBasket--><g id="elem_IBasket"><rect codeLine="15" fill="#F1F1F1" height="100.8281" id="IBasket" rx="2.5" ry="2.5" style="stroke:#181818;stroke-width:0.5;" width="168" x="1021" y="15.5"/><ellipse cx="1076.75" cy="31.5" fill="#B4A7E5" rx="11" ry="11" style="stroke:#181818;stroke-width:1.0;"/><path d="M1077.7031,28.1406 L1077.7031,34.7969 L1079.4219,34.7969 Q1080.0313,34.7969 1080.2969,35.0313 Q1080.5625,35.2656 1080.5625,35.6563 Q1080.5625,36.0313 1080.2969,36.2656 Q1080.0313,36.5 1079.4219,36.5 L1074.2813,36.5 Q1073.6719,36.5 1073.4063,36.2656 Q1073.1406,36.0313 1073.1406,35.6406 Q1073.1406,35.2656 1073.4063,35.0313 Q1073.6719,34.7969 1074.2813,34.7969 L1076,34.7969 L1076,28.1406 L1074.2813,28.1406 Q1073.6719,28.1406 1073.4063,27.9063 Q1073.1406,27.6719 1073.1406,27.2813 Q1073.1406,26.9063 1073.4063,26.6719 Q1073.6719,26.4375 1074.2813,26.4375 L1079.4219,26.4375 Q1080.0313,26.4375 1080.2969,26.6719 Q1080.5625,26.9063 1080.5625,27.2813 Q1080.5625,27.6719 1080.2969,27.9063 Q1080.0313,28.1406 1079.4219,28.1406 L1077.7031,28.1406 Z " fill="#000000"/><text fill="#000000" font-family="sans-serif" font-size="14" font-style="italic" lengthAdjust="spacing" textLength="48" x="1097.25" y="37.2285">IBasket</text><line style="stroke:#181818;stroke-width:0.5;" x1="1022" x2="1188" y1="47.5" y2="47.5"/><line style="stroke:#181818;stroke-width:0.5;" x1="1022" x2="1188" y1="55.5" y2="55.5"/><text fill="#000000" font-family="sans-serif" font-size="14" lengthAdjust="spacing" textLength="129" x="1027" y="74.0332">Add(item:Item) : void</text><text fill="#000000" font-family="sans-serif" font-size="14" lengthAdjust="spacing" textLength="92" x="1027" y="91.6426">GetPrice() : int</text><text fill="#000000" font-family="sans-serif" font-size="14" lengthAdjust="spacing" textLength="156" x="1027" y="109.252">Remove(item:Item) : void</text></g><!--class IEnumerable`1--><g id="elem_IEnumerable`1"><rect codeLine="49" fill="#F1F1F1" height="48" id="IEnumerable`1" rx="2.5" ry="2.5" style="stroke:#181818;stroke-width:0.5;" width="135" x="1037.5" y="390"/><ellipse cx="1052.5" cy="406" fill="#ADD1B2" rx="11" ry="11" style="stroke:#181818;stroke-width:1.0;"/><path d="M1055.2656,401.875 Q1055.4219,401.6563 1055.6094,401.5469 Q1055.7969,401.4375 1056.0156,401.4375 Q1056.3906,401.4375 1056.625,401.7031 Q1056.8594,401.9531 1056.8594,402.5625 L1056.8594,404.0156 Q1056.8594,404.625 1056.625,404.8906 Q1056.3906,405.1563 1056.0156,405.1563 Q1055.6719,405.1563 1055.4688,404.9531 Q1055.2656,404.7656 1055.1563,404.25 Q1055.1094,403.8906 1054.9219,403.7031 Q1054.5938,403.3281 1053.9844,403.1094 Q1053.375,402.8906 1052.75,402.8906 Q1051.9844,402.8906 1051.3438,403.2188 Q1050.7188,403.5469 1050.2188,404.2969 Q1049.7344,405.0469 1049.7344,406.0781 L1049.7344,407.1719 Q1049.7344,408.4063 1050.625,409.2344 Q1051.5156,410.0469 1053.1094,410.0469 Q1054.0469,410.0469 1054.7031,409.7969 Q1055.0938,409.6406 1055.5156,409.2031 Q1055.7813,408.9375 1055.9219,408.8594 Q1056.0781,408.7813 1056.2813,408.7813 Q1056.6094,408.7813 1056.8594,409.0469 Q1057.125,409.2969 1057.125,409.6406 Q1057.125,409.9844 1056.7813,410.3906 Q1056.2813,410.9688 1055.4844,411.2969 Q1054.4063,411.75 1053.1094,411.75 Q1051.5938,411.75 1050.3906,411.125 Q1049.4063,410.625 1048.7188,409.5625 Q1048.0313,408.4844 1048.0313,407.2031 L1048.0313,406.0469 Q1048.0313,404.7188 1048.6406,403.5781 Q1049.2656,402.4219 1050.3594,401.8125 Q1051.4531,401.1875 1052.6875,401.1875 Q1053.4219,401.1875 1054.0625,401.3594 Q1054.7188,401.5156 1055.2656,401.875 Z " fill="#000000"/><text fill="#000000" font-family="sans-serif" font-size="14" lengthAdjust="spacing" textLength="92" x="1066.5" y="411.7285">IEnumerable`1</text><rect fill="#FFFFFF" height="17.0938" style="stroke:#181818;stroke-width:1.0;stroke-dasharray:2.0,2.0;" width="9" x="1166.5" y="387"/><text fill="#000000" font-family="sans-serif" font-size="12" font-style="italic" lengthAdjust="spacing" textLength="7" x="1167.5" y="400.457">T</text><line style="stroke:#181818;stroke-width:0.5;" x1="1038.5" x2="1171.5" y1="422" y2="422"/><line style="stroke:#181818;stroke-width:0.5;" x1="1038.5" x2="1171.5" y1="430" y2="430"/></g><!--class LimitedBasket--><g id="elem_LimitedBasket"><rect codeLine="23" fill="#F1F1F1" height="136.0469" id="LimitedBasket" rx="2.5" ry="2.5" style="stroke:#181818;stroke-width:0.5;" width="232" x="1158" y="185"/><ellipse cx="1225.75" cy="201" fill="#ADD1B2" rx="11" ry="11" style="stroke:#181818;stroke-width:1.0;"/><path d="M1228.5156,196.875 Q1228.6719,196.6563 1228.8594,196.5469 Q1229.0469,196.4375 1229.2656,196.4375 Q1229.6406,196.4375 1229.875,196.7031 Q1230.1094,196.9531 1230.1094,197.5625 L1230.1094,199.0156 Q1230.1094,199.625 1229.875,199.8906 Q1229.6406,200.1563 1229.2656,200.1563 Q1228.9219,200.1563 1228.7188,199.9531 Q1228.5156,199.7656 1228.4063,199.25 Q1228.3594,198.8906 1228.1719,198.7031 Q1227.8438,198.3281 1227.2344,198.1094 Q1226.625,197.8906 1226,197.8906 Q1225.2344,197.8906 1224.5938,198.2188 Q1223.9688,198.5469 1223.4688,199.2969 Q1222.9844,200.0469 1222.9844,201.0781 L1222.9844,202.1719 Q1222.9844,203.4063 1223.875,204.2344 Q1224.7656,205.0469 1226.3594,205.0469 Q1227.2969,205.0469 1227.9531,204.7969 Q1228.3438,204.6406 1228.7656,204.2031 Q1229.0313,203.9375 1229.1719,203.8594 Q1229.3281,203.7813 1229.5313,203.7813 Q1229.8594,203.7813 1230.1094,204.0469 Q1230.375,204.2969 1230.375,204.6406 Q1230.375,204.9844 1230.0313,205.3906 Q1229.5313,205.9688 1228.7344,206.2969 Q1227.6563,206.75 1226.3594,206.75 Q1224.8438,206.75 1223.6406,206.125 Q1222.6563,205.625 1221.9688,204.5625 Q1221.2813,203.4844 1221.2813,202.2031 L1221.2813,201.0469 Q1221.2813,199.7188 1221.8906,198.5781 Q1222.5156,197.4219 1223.6094,196.8125 Q1224.7031,196.1875 1225.9375,196.1875 Q1226.6719,196.1875 1227.3125,196.3594 Q1227.9688,196.5156 1228.5156,196.875 Z " fill="#000000"/><text fill="#000000" font-family="sans-serif" font-size="14" lengthAdjust="spacing" textLength="88" x="1246.25" y="206.7285">LimitedBasket</text><line style="stroke:#181818;stroke-width:0.5;" x1="1159" x2="1389" y1="217" y2="217"/><ellipse cx="1169" cy="231.3047" fill="none" rx="3" ry="3" style="stroke:#038048;stroke-width:1.0;"/><text fill="#000000" font-family="sans-serif" font-size="14" lengthAdjust="spacing" textLength="156" x="1178" y="235.5332">MaxItemCount : int &#171;get&#187;</text><line style="stroke:#181818;stroke-width:0.5;" x1="1159" x2="1389" y1="242.6094" y2="242.6094"/><ellipse cx="1169" cy="256.9141" fill="#84BE84" rx="3" ry="3" style="stroke:#038048;stroke-width:1.0;"/><text fill="#000000" font-family="sans-serif" font-size="14" lengthAdjust="spacing" textLength="206" x="1178" y="261.1426">LimitedBasket(maxItemCount:int)</text><ellipse cx="1169" cy="274.5234" fill="#84BE84" rx="3" ry="3" style="stroke:#038048;stroke-width:1.0;"/><text fill="#000000" font-family="sans-serif" font-size="14" lengthAdjust="spacing" textLength="92" x="1178" y="278.752">GetPrice() : int</text><ellipse cx="1169" cy="292.1328" fill="#84BE84" rx="3" ry="3" style="stroke:#038048;stroke-width:1.0;"/><text fill="#000000" font-family="sans-serif" font-size="14" lengthAdjust="spacing" textLength="156" x="1178" y="296.3613">Remove(item:Item) : void</text><ellipse cx="1169" cy="309.7422" fill="#84BE84" rx="3" ry="3" style="stroke:#038048;stroke-width:1.0;"/><text fill="#000000" font-family="sans-serif" font-size="14" lengthAdjust="spacing" textLength="129" x="1178" y="313.9707">Add(item:Item) : void</text></g><!--class List`1--><g id="elem_List`1"><rect codeLine="30" fill="#F1F1F1" height="48" id="List`1" rx="2.5" ry="2.5" style="stroke:#181818;stroke-width:0.5;" width="78" x="1235" y="390"/><ellipse cx="1250" cy="406" fill="#ADD1B2" rx="11" ry="11" style="stroke:#181818;stroke-width:1.0;"/><path d="M1252.7656,401.875 Q1252.9219,401.6563 1253.1094,401.5469 Q1253.2969,401.4375 1253.5156,401.4375 Q1253.8906,401.4375 1254.125,401.7031 Q1254.3594,401.9531 1254.3594,402.5625 L1254.3594,404.0156 Q1254.3594,404.625 1254.125,404.8906 Q1253.8906,405.1563 1253.5156,405.1563 Q1253.1719,405.1563 1252.9688,404.9531 Q1252.7656,404.7656 1252.6563,404.25 Q1252.6094,403.8906 1252.4219,403.7031 Q1252.0938,403.3281 1251.4844,403.1094 Q1250.875,402.8906 1250.25,402.8906 Q1249.4844,402.8906 1248.8438,403.2188 Q1248.2188,403.5469 1247.7188,404.2969 Q1247.2344,405.0469 1247.2344,406.0781 L1247.2344,407.1719 Q1247.2344,408.4063 1248.125,409.2344 Q1249.0156,410.0469 1250.6094,410.0469 Q1251.5469,410.0469 1252.2031,409.7969 Q1252.5938,409.6406 1253.0156,409.2031 Q1253.2813,408.9375 1253.4219,408.8594 Q1253.5781,408.7813 1253.7813,408.7813 Q1254.1094,408.7813 1254.3594,409.0469 Q1254.625,409.2969 1254.625,409.6406 Q1254.625,409.9844 1254.2813,410.3906 Q1253.7813,410.9688 1252.9844,411.2969 Q1251.9063,411.75 1250.6094,411.75 Q1249.0938,411.75 1247.8906,411.125 Q1246.9063,410.625 1246.2188,409.5625 Q1245.5313,408.4844 1245.5313,407.2031 L1245.5313,406.0469 Q1245.5313,404.7188 1246.1406,403.5781 Q1246.7656,402.4219 1247.8594,401.8125 Q1248.9531,401.1875 1250.1875,401.1875 Q1250.9219,401.1875 1251.5625,401.3594 Q1252.2188,401.5156 1252.7656,401.875 Z " fill="#000000"/><text fill="#000000" font-family="sans-serif" font-size="14" lengthAdjust="spacing" textLength="35" x="1264" y="411.7285">List`1</text><rect fill="#FFFFFF" height="17.0938" style="stroke:#181818;stroke-width:1.0;stroke-dasharray:2.0,2.0;" width="9" x="1307" y="387"/><text fill="#000000" font-family="sans-serif" font-size="12" font-style="italic" lengthAdjust="spacing" textLength="7" x="1308" y="400.457">T</text><line style="stroke:#181818;stroke-width:0.5;" x1="1236" x2="1312" y1="422" y2="422"/><line style="stroke:#181818;stroke-width:0.5;" x1="1236" x2="1312" y1="430" y2="430"/></g><!--class LimitedBasketFactory--><g id="elem_LimitedBasketFactory"><rect codeLine="37" fill="#F1F1F1" height="83.2188" id="LimitedBasketFactory" rx="2.5" ry="2.5" style="stroke:#181818;stroke-width:0.5;" width="228" x="245" y="211.5"/><ellipse cx="287" cy="227.5" fill="#ADD1B2" rx="11" ry="11" style="stroke:#181818;stroke-width:1.0;"/><path d="M289.7656,223.375 Q289.9219,223.1563 290.1094,223.0469 Q290.2969,222.9375 290.5156,222.9375 Q290.8906,222.9375 291.125,223.2031 Q291.3594,223.4531 291.3594,224.0625 L291.3594,225.5156 Q291.3594,226.125 291.125,226.3906 Q290.8906,226.6563 290.5156,226.6563 Q290.1719,226.6563 289.9688,226.4531 Q289.7656,226.2656 289.6563,225.75 Q289.6094,225.3906 289.4219,225.2031 Q289.0938,224.8281 288.4844,224.6094 Q287.875,224.3906 287.25,224.3906 Q286.4844,224.3906 285.8438,224.7188 Q285.2188,225.0469 284.7188,225.7969 Q284.2344,226.5469 284.2344,227.5781 L284.2344,228.6719 Q284.2344,229.9063 285.125,230.7344 Q286.0156,231.5469 287.6094,231.5469 Q288.5469,231.5469 289.2031,231.2969 Q289.5938,231.1406 290.0156,230.7031 Q290.2813,230.4375 290.4219,230.3594 Q290.5781,230.2813 290.7813,230.2813 Q291.1094,230.2813 291.3594,230.5469 Q291.625,230.7969 291.625,231.1406 Q291.625,231.4844 291.2813,231.8906 Q290.7813,232.4688 289.9844,232.7969 Q288.9063,233.25 287.6094,233.25 Q286.0938,233.25 284.8906,232.625 Q283.9063,232.125 283.2188,231.0625 Q282.5313,229.9844 282.5313,228.7031 L282.5313,227.5469 Q282.5313,226.2188 283.1406,225.0781 Q283.7656,223.9219 284.8594,223.3125 Q285.9531,222.6875 287.1875,222.6875 Q287.9219,222.6875 288.5625,222.8594 Q289.2188,223.0156 289.7656,223.375 Z " fill="#000000"/><text fill="#000000" font-family="sans-serif" font-size="14" lengthAdjust="spacing" textLength="136" x="307" y="233.2285">LimitedBasketFactory</text><line style="stroke:#181818;stroke-width:0.5;" x1="246" x2="472" y1="243.5" y2="243.5"/><rect fill="none" height="6" style="stroke:#C82930;stroke-width:1.0;" width="6" x="253" y="254.8047"/><text fill="#000000" font-family="sans-serif" font-size="14" lengthAdjust="spacing" textLength="202" x="265" y="262.0332">&#171;const&#187; MaxItemCount : int = 10</text><line style="stroke:#181818;stroke-width:0.5;" x1="246" x2="472" y1="269.1094" y2="269.1094"/><ellipse cx="256" cy="283.4141" fill="#84BE84" rx="3" ry="3" style="stroke:#038048;stroke-width:1.0;"/><text fill="#000000" font-family="sans-serif" font-size="14" lengthAdjust="spacing" textLength="183" x="265" y="287.6426">&#171;override&#187; Create() : IBasket</text></g><!--class UnlimitedBasket--><g id="elem_UnlimitedBasket"><rect codeLine="42" fill="#F1F1F1" height="100.8281" id="UnlimitedBasket" rx="2.5" ry="2.5" style="stroke:#181818;stroke-width:0.5;" width="182" x="753" y="202.5"/><ellipse cx="790.5" cy="218.5" fill="#ADD1B2" rx="11" ry="11" style="stroke:#181818;stroke-width:1.0;"/><path d="M793.2656,214.375 Q793.4219,214.1563 793.6094,214.0469 Q793.7969,213.9375 794.0156,213.9375 Q794.3906,213.9375 794.625,214.2031 Q794.8594,214.4531 794.8594,215.0625 L794.8594,216.5156 Q794.8594,217.125 794.625,217.3906 Q794.3906,217.6563 794.0156,217.6563 Q793.6719,217.6563 793.4688,217.4531 Q793.2656,217.2656 793.1563,216.75 Q793.1094,216.3906 792.9219,216.2031 Q792.5938,215.8281 791.9844,215.6094 Q791.375,215.3906 790.75,215.3906 Q789.9844,215.3906 789.3438,215.7188 Q788.7188,216.0469 788.2188,216.7969 Q787.7344,217.5469 787.7344,218.5781 L787.7344,219.6719 Q787.7344,220.9063 788.625,221.7344 Q789.5156,222.5469 791.1094,222.5469 Q792.0469,222.5469 792.7031,222.2969 Q793.0938,222.1406 793.5156,221.7031 Q793.7813,221.4375 793.9219,221.3594 Q794.0781,221.2813 794.2813,221.2813 Q794.6094,221.2813 794.8594,221.5469 Q795.125,221.7969 795.125,222.1406 Q795.125,222.4844 794.7813,222.8906 Q794.2813,223.4688 793.4844,223.7969 Q792.4063,224.25 791.1094,224.25 Q789.5938,224.25 788.3906,223.625 Q787.4063,223.125 786.7188,222.0625 Q786.0313,220.9844 786.0313,219.7031 L786.0313,218.5469 Q786.0313,217.2188 786.6406,216.0781 Q787.2656,214.9219 788.3594,214.3125 Q789.4531,213.6875 790.6875,213.6875 Q791.4219,213.6875 792.0625,213.8594 Q792.7188,214.0156 793.2656,214.375 Z " fill="#000000"/><text fill="#000000" font-family="sans-serif" font-size="14" lengthAdjust="spacing" textLength="100" x="809.5" y="224.2285">UnlimitedBasket</text><line style="stroke:#181818;stroke-width:0.5;" x1="754" x2="934" y1="234.5" y2="234.5"/><line style="stroke:#181818;stroke-width:0.5;" x1="754" x2="934" y1="242.5" y2="242.5"/><ellipse cx="764" cy="256.8047" fill="#84BE84" rx="3" ry="3" style="stroke:#038048;stroke-width:1.0;"/><text fill="#000000" font-family="sans-serif" font-size="14" lengthAdjust="spacing" textLength="129" x="773" y="261.0332">Add(item:Item) : void</text><ellipse cx="764" cy="274.4141" fill="#84BE84" rx="3" ry="3" style="stroke:#038048;stroke-width:1.0;"/><text fill="#000000" font-family="sans-serif" font-size="14" lengthAdjust="spacing" textLength="92" x="773" y="278.6426">GetPrice() : int</text><ellipse cx="764" cy="292.0234" fill="#84BE84" rx="3" ry="3" style="stroke:#038048;stroke-width:1.0;"/><text fill="#000000" font-family="sans-serif" font-size="14" lengthAdjust="spacing" textLength="156" x="773" y="296.252">Remove(item:Item) : void</text></g><!--class IList`1--><g id="elem_IList`1"><rect codeLine="47" fill="#F1F1F1" height="48" id="IList`1" rx="2.5" ry="2.5" style="stroke:#181818;stroke-width:0.5;" width="81" x="970.5" y="229"/><ellipse cx="985.5" cy="245" fill="#ADD1B2" rx="11" ry="11" style="stroke:#181818;stroke-width:1.0;"/><path d="M988.2656,240.875 Q988.4219,240.6563 988.6094,240.5469 Q988.7969,240.4375 989.0156,240.4375 Q989.3906,240.4375 989.625,240.7031 Q989.8594,240.9531 989.8594,241.5625 L989.8594,243.0156 Q989.8594,243.625 989.625,243.8906 Q989.3906,244.1563 989.0156,244.1563 Q988.6719,244.1563 988.4688,243.9531 Q988.2656,243.7656 988.1563,243.25 Q988.1094,242.8906 987.9219,242.7031 Q987.5938,242.3281 986.9844,242.1094 Q986.375,241.8906 985.75,241.8906 Q984.9844,241.8906 984.3438,242.2188 Q983.7188,242.5469 983.2188,243.2969 Q982.7344,244.0469 982.7344,245.0781 L982.7344,246.1719 Q982.7344,247.4063 983.625,248.2344 Q984.5156,249.0469 986.1094,249.0469 Q987.0469,249.0469 987.7031,248.7969 Q988.0938,248.6406 988.5156,248.2031 Q988.7813,247.9375 988.9219,247.8594 Q989.0781,247.7813 989.2813,247.7813 Q989.6094,247.7813 989.8594,248.0469 Q990.125,248.2969 990.125,248.6406 Q990.125,248.9844 989.7813,249.3906 Q989.2813,249.9688 988.4844,250.2969 Q987.4063,250.75 986.1094,250.75 Q984.5938,250.75 983.3906,250.125 Q982.4063,249.625 981.7188,248.5625 Q981.0313,247.4844 981.0313,246.2031 L981.0313,245.0469 Q981.0313,243.7188 981.6406,242.5781 Q982.2656,241.4219 983.3594,240.8125 Q984.4531,240.1875 985.6875,240.1875 Q986.4219,240.1875 987.0625,240.3594 Q987.7188,240.5156 988.2656,240.875 Z " fill="#000000"/><text fill="#000000" font-family="sans-serif" font-size="14" lengthAdjust="spacing" textLength="38" x="999.5" y="250.7285">IList`1</text><rect fill="#FFFFFF" height="17.0938" style="stroke:#181818;stroke-width:1.0;stroke-dasharray:2.0,2.0;" width="9" x="1045.5" y="226"/><text fill="#000000" font-family="sans-serif" font-size="12" font-style="italic" lengthAdjust="spacing" textLength="7" x="1046.5" y="239.457">T</text><line style="stroke:#181818;stroke-width:0.5;" x1="971.5" x2="1050.5" y1="261" y2="261"/><line style="stroke:#181818;stroke-width:0.5;" x1="971.5" x2="1050.5" y1="269" y2="269"/></g><!--class UnlimitedBasketFactory--><g id="elem_UnlimitedBasketFactory"><rect codeLine="54" fill="#F1F1F1" height="65.6094" id="UnlimitedBasketFactory" rx="2.5" ry="2.5" style="stroke:#181818;stroke-width:0.5;" width="209" x="508.5" y="220"/><ellipse cx="536.55" cy="236" fill="#ADD1B2" rx="11" ry="11" style="stroke:#181818;stroke-width:1.0;"/><path d="M539.3156,231.875 Q539.4719,231.6563 539.6594,231.5469 Q539.8469,231.4375 540.0656,231.4375 Q540.4406,231.4375 540.675,231.7031 Q540.9094,231.9531 540.9094,232.5625 L540.9094,234.0156 Q540.9094,234.625 540.675,234.8906 Q540.4406,235.1563 540.0656,235.1563 Q539.7219,235.1563 539.5188,234.9531 Q539.3156,234.7656 539.2063,234.25 Q539.1594,233.8906 538.9719,233.7031 Q538.6438,233.3281 538.0344,233.1094 Q537.425,232.8906 536.8,232.8906 Q536.0344,232.8906 535.3938,233.2188 Q534.7688,233.5469 534.2688,234.2969 Q533.7844,235.0469 533.7844,236.0781 L533.7844,237.1719 Q533.7844,238.4063 534.675,239.2344 Q535.5656,240.0469 537.1594,240.0469 Q538.0969,240.0469 538.7531,239.7969 Q539.1438,239.6406 539.5656,239.2031 Q539.8313,238.9375 539.9719,238.8594 Q540.1281,238.7813 540.3313,238.7813 Q540.6594,238.7813 540.9094,239.0469 Q541.175,239.2969 541.175,239.6406 Q541.175,239.9844 540.8313,240.3906 Q540.3313,240.9688 539.5344,241.2969 Q538.4563,241.75 537.1594,241.75 Q535.6438,241.75 534.4406,241.125 Q533.4563,240.625 532.7688,239.5625 Q532.0813,238.4844 532.0813,237.2031 L532.0813,236.0469 Q532.0813,234.7188 532.6906,233.5781 Q533.3156,232.4219 534.4094,231.8125 Q535.5031,231.1875 536.7375,231.1875 Q537.4719,231.1875 538.1125,231.3594 Q538.7688,231.5156 539.3156,231.875 Z " fill="#000000"/><text fill="#000000" font-family="sans-serif" font-size="14" lengthAdjust="spacing" textLength="148" x="553.45" y="241.7285">UnlimitedBasketFactory</text><line style="stroke:#181818;stroke-width:0.5;" x1="509.5" x2="716.5" y1="252" y2="252"/><line style="stroke:#181818;stroke-width:0.5;" x1="509.5" x2="716.5" y1="260" y2="260"/><ellipse cx="519.5" cy="274.3047" fill="#84BE84" rx="3" ry="3" style="stroke:#038048;stroke-width:1.0;"/><text fill="#000000" font-family="sans-serif" font-size="14" lengthAdjust="spacing" textLength="183" x="528.5" y="278.5332">&#171;override&#187; Create() : IBasket</text></g><!--class SportItem--><g id="elem_SportItem"><rect codeLine="65" fill="#F1F1F1" height="65.6094" id="SportItem" rx="2.5" ry="2.5" style="stroke:#181818;stroke-width:0.5;" width="392" x="1348" y="381"/><ellipse cx="1509.75" cy="397" fill="#ADD1B2" rx="11" ry="11" style="stroke:#181818;stroke-width:1.0;"/><path d="M1512.5156,392.875 Q1512.6719,392.6563 1512.8594,392.5469 Q1513.0469,392.4375 1513.2656,392.4375 Q1513.6406,392.4375 1513.875,392.7031 Q1514.1094,392.9531 1514.1094,393.5625 L1514.1094,395.0156 Q1514.1094,395.625 1513.875,395.8906 Q1513.6406,396.1563 1513.2656,396.1563 Q1512.9219,396.1563 1512.7188,395.9531 Q1512.5156,395.7656 1512.4063,395.25 Q1512.3594,394.8906 1512.1719,394.7031 Q1511.8438,394.3281 1511.2344,394.1094 Q1510.625,393.8906 1510,393.8906 Q1509.2344,393.8906 1508.5938,394.2188 Q1507.9688,394.5469 1507.4688,395.2969 Q1506.9844,396.0469 1506.9844,397.0781 L1506.9844,398.1719 Q1506.9844,399.4063 1507.875,400.2344 Q1508.7656,401.0469 1510.3594,401.0469 Q1511.2969,401.0469 1511.9531,400.7969 Q1512.3438,400.6406 1512.7656,400.2031 Q1513.0313,399.9375 1513.1719,399.8594 Q1513.3281,399.7813 1513.5313,399.7813 Q1513.8594,399.7813 1514.1094,400.0469 Q1514.375,400.2969 1514.375,400.6406 Q1514.375,400.9844 1514.0313,401.3906 Q1513.5313,401.9688 1512.7344,402.2969 Q1511.6563,402.75 1510.3594,402.75 Q1508.8438,402.75 1507.6406,402.125 Q1506.6563,401.625 1505.9688,400.5625 Q1505.2813,399.4844 1505.2813,398.2031 L1505.2813,397.0469 Q1505.2813,395.7188 1505.8906,394.5781 Q1506.5156,393.4219 1507.6094,392.8125 Q1508.7031,392.1875 1509.9375,392.1875 Q1510.6719,392.1875 1511.3125,392.3594 Q1511.9688,392.5156 1512.5156,392.875 Z " fill="#000000"/><text fill="#000000" font-family="sans-serif" font-size="14" lengthAdjust="spacing" textLength="60" x="1530.25" y="402.7285">SportItem</text><line style="stroke:#181818;stroke-width:0.5;" x1="1349" x2="1739" y1="413" y2="413"/><line style="stroke:#181818;stroke-width:0.5;" x1="1349" x2="1739" y1="421" y2="421"/><ellipse cx="1359" cy="435.3047" fill="#84BE84" rx="3" ry="3" style="stroke:#038048;stroke-width:1.0;"/><text fill="#000000" font-family="sans-serif" font-size="14" lengthAdjust="spacing" textLength="366" x="1368" y="439.5332">SportItem(price:int, name:string, id:int, kind:SportItemKind)</text></g><!--class SportItemKind--><g id="elem_SportItemKind"><rect codeLine="70" fill="#F1F1F1" height="100.8281" id="SportItemKind" rx="2.5" ry="2.5" style="stroke:#181818;stroke-width:0.5;" width="120" x="1484" y="507"/><ellipse cx="1499" cy="523" fill="#EB937F" rx="11" ry="11" style="stroke:#181818;stroke-width:1.0;"/><path d="M1497.8594,523.7969 L1497.8594,526.2969 L1502.1875,526.2969 L1502.1875,525.375 Q1502.1875,524.7656 1502.4219,524.5 Q1502.6719,524.2344 1503.0469,524.2344 Q1503.4219,524.2344 1503.6563,524.5 Q1503.8906,524.7656 1503.8906,525.375 L1503.8906,528 L1495.8906,528 Q1495.2656,528 1495,527.7656 Q1494.75,527.5313 1494.75,527.1406 Q1494.75,526.7656 1495.0156,526.5313 Q1495.2813,526.2969 1495.8906,526.2969 L1496.1563,526.2969 L1496.1563,519.6406 L1495.8906,519.6406 Q1495.2656,519.6406 1495,519.4063 Q1494.75,519.1719 1494.75,518.7813 Q1494.75,518.4063 1495,518.1719 Q1495.2656,517.9375 1495.8906,517.9375 L1503.5156,517.9375 L1503.5156,520.5313 Q1503.5156,521.1406 1503.2813,521.4063 Q1503.0625,521.6563 1502.6719,521.6563 Q1502.2969,521.6563 1502.0625,521.4063 Q1501.8281,521.1406 1501.8281,520.5313 L1501.8281,519.6406 L1497.8594,519.6406 L1497.8594,522.0938 L1499.3438,522.0938 Q1499.3438,521.4375 1499.4688,521.25 Q1499.7344,520.8438 1500.2031,520.8438 Q1500.5781,520.8438 1500.8125,521.1094 Q1501.0469,521.3594 1501.0469,521.9688 L1501.0469,523.9375 Q1501.0469,524.4844 1500.9219,524.6719 Q1500.6563,525.0625 1500.2031,525.0625 Q1499.7344,525.0625 1499.4688,524.6563 Q1499.3438,524.4688 1499.3438,523.7969 L1497.8594,523.7969 Z " fill="#000000"/><text fill="#000000" font-family="sans-serif" font-size="14" lengthAdjust="spacing" textLength="88" x="1513" y="528.7285">SportItemKind</text><line style="stroke:#181818;stroke-width:0.5;" x1="1485" x2="1603" y1="539" y2="539"/><text fill="#000000" font-family="sans-serif" font-size="14" lengthAdjust="spacing" textLength="12" x="1490" y="557.5332">X,</text><text fill="#000000" font-family="sans-serif" font-size="14" lengthAdjust="spacing" textLength="13" x="1490" y="575.1426">Y,</text><text fill="#000000" font-family="sans-serif" font-size="14" lengthAdjust="spacing" textLength="12" x="1490" y="592.752">Z,</text><line style="stroke:#181818;stroke-width:0.5;" x1="1485" x2="1603" y1="599.8281" y2="599.8281"/></g><!--link Program to BasketFactory--><g id="link_Program_BasketFactory"><path codeLine="7" d="M393.06,66 C404.81,66 398.56,66 410.31,66 " fill="none" id="Program-BasketFactory" style="stroke:#181818;stroke-width:1.0;"/><polygon fill="none" points="381.06,66,387.06,70,393.06,66,387.06,62,381.06,66" style="stroke:#181818;stroke-width:1.0;"/><polygon fill="#181818" points="416.31,66,407.31,62,411.31,66,407.31,70,416.31,66" style="stroke:#181818;stroke-width:1.0;"/><text fill="#000000" font-family="sans-serif" font-size="13" lengthAdjust="spacing" textLength="85" x="324.1457" y="48.9551">BasketFactory</text></g><!--link BasketItem to Item--><g id="link_BasketItem_Item"><path codeLine="14" d="M1544,99.22 C1544,122.83 1544,149.71 1544,178.92 " fill="none" id="BasketItem-to-Item" style="stroke:#181818;stroke-width:1.0;"/><polygon fill="#181818" points="1544,184.92,1548,175.92,1544,179.92,1540,175.92,1544,184.92" style="stroke:#181818;stroke-width:1.0;"/><text fill="#000000" font-family="sans-serif" font-size="13" lengthAdjust="spacing" textLength="25" x="1517.6328" y="174.1105">Item</text></g><!--link IBasket to IEnumerable`1--><g id="link_IBasket_IEnumerable`1"><path codeLine="22" d="M1105,116.57 C1105,192.44 1105,328.38 1105,383.9 " fill="none" id="IBasket-to-IEnumerable`1" style="stroke:#181818;stroke-width:1.0;"/><polygon fill="#181818" points="1105,389.9,1109,380.9,1105,384.9,1101,380.9,1105,389.9" style="stroke:#181818;stroke-width:1.0;"/><text fill="#000000" font-family="sans-serif" font-size="13" lengthAdjust="spacing" textLength="73" x="1114.3531" y="379.2145">Items&lt;Item&gt;</text></g><!--reverse link IBasket to LimitedBasket--><g id="link_IBasket_LimitedBasket"><path codeLine="34" d="M1162.4315,129.8685 C1181.5915,150.8385 1192.07,162.32 1212.7,184.89 " fill="none" id="IBasket-backto-LimitedBasket" style="stroke:#181818;stroke-width:1.0;"/><polygon fill="none" points="1150.29,116.58,1158.002,133.9157,1166.861,125.8213,1150.29,116.58" style="stroke:#181818;stroke-width:1.0;"/></g><!--link LimitedBasket to List`1--><g id="link_LimitedBasket_List`1"><path codeLine="35" d="M1274,321.43 C1274,345.81 1274,365.73 1274,383.75 " fill="none" id="LimitedBasket-to-List`1" style="stroke:#181818;stroke-width:1.0;"/><polygon fill="#181818" points="1274,389.75,1278,380.75,1274,384.75,1270,380.75,1274,389.75" style="stroke:#181818;stroke-width:1.0;"/><text fill="#000000" font-family="sans-serif" font-size="13" lengthAdjust="spacing" textLength="131" x="1249.7216" y="370.2547">_internalBasket&lt;Item&gt;</text></g><!--link LimitedBasket to IEnumerable`1--><g id="link_LimitedBasket_IEnumerable`1"><path codeLine="36" d="M1202.33,321.43 C1176.42,345.81 1153.2296,367.6182 1134.0796,385.6382 " fill="none" id="LimitedBasket-to-IEnumerable`1" style="stroke:#181818;stroke-width:1.0;"/><polygon fill="#181818" points="1129.71,389.75,1139.0056,386.4954,1133.3513,386.3235,1133.5232,380.6693,1129.71,389.75" style="stroke:#181818;stroke-width:1.0;"/><text fill="#000000" font-family="sans-serif" font-size="13" lengthAdjust="spacing" textLength="73" x="1053.6888" y="379.0261">Items&lt;Item&gt;</text></g><!--reverse link BasketFactory to LimitedBasketFactory--><g id="link_BasketFactory_LimitedBasketFactory"><path codeLine="41" d="M453.693,114.06 C432.303,145.22 410,177.71 386.86,211.42 " fill="none" id="BasketFactory-backto-LimitedBasketFactory" style="stroke:#181818;stroke-width:1.0;"/><polygon fill="none" points="463.88,99.22,448.7463,110.6643,458.6397,117.4556,463.88,99.22" style="stroke:#181818;stroke-width:1.0;"/></g><!--reverse link IBasket to UnlimitedBasket--><g id="link_IBasket_UnlimitedBasket"><path codeLine="51" d="M1020.3739,126.9877 C982.9239,153.5277 951.61,175.72 914.14,202.29 " fill="none" id="IBasket-backto-UnlimitedBasket" style="stroke:#181818;stroke-width:1.0;"/><polygon fill="none" points="1035.06,116.58,1016.9047,122.0923,1023.8432,131.883,1035.06,116.58" style="stroke:#181818;stroke-width:1.0;"/></g><!--link UnlimitedBasket to IList`1--><g id="link_UnlimitedBasket_IList`1"><path codeLine="52" d="M947,253 C958.78,253 952.55,253 964.33,253 " fill="none" id="UnlimitedBasket-IList`1" style="stroke:#181818;stroke-width:1.0;"/><polygon fill="none" points="935,253,941,257,947,253,941,249,935,253" style="stroke:#181818;stroke-width:1.0;"/><polygon fill="#181818" points="970.33,253,961.33,249,965.33,253,961.33,257,970.33,253" style="stroke:#181818;stroke-width:1.0;"/><text fill="#000000" font-family="sans-serif" font-size="13" lengthAdjust="spacing" textLength="131" x="1057.235" y="223.1104">_internalBasket&lt;Item&gt;</text></g><!--link UnlimitedBasket to IEnumerable`1--><g id="link_UnlimitedBasket_IEnumerable`1"><path codeLine="53" d="M924.62,303.64 C934.18,309.5 943.8,315.39 953,321 C991.58,344.53 1030.6427,368.1603 1061.4027,386.7203 " fill="none" id="UnlimitedBasket-to-IEnumerable`1" style="stroke:#181818;stroke-width:1.0;"/><polygon fill="#181818" points="1066.54,389.82,1060.9006,381.7455,1062.2589,387.2369,1056.7676,388.5952,1066.54,389.82" style="stroke:#181818;stroke-width:1.0;"/><text fill="#000000" font-family="sans-serif" font-size="13" lengthAdjust="spacing" textLength="73" x="974.3315" y="379.114">Items&lt;Item&gt;</text></g><!--reverse link BasketFactory to UnlimitedBasketFactory--><g id="link_BasketFactory_UnlimitedBasketFactory"><path codeLine="57" d="M518.306,114.0607 C541.546,147.9207 567.7,186.01 590.92,219.83 " fill="none" id="BasketFactory-backto-UnlimitedBasketFactory" style="stroke:#181818;stroke-width:1.0;"/><polygon fill="none" points="508.12,99.22,513.3591,117.456,523.2529,110.6654,508.12,99.22" style="stroke:#181818;stroke-width:1.0;"/></g><!--reverse link Item to SportItem--><g id="link_Item_SportItem"><path codeLine="68" d="M1544,339.43 C1544,360.08 1544,363.85 1544,380.97 " fill="none" id="Item-backto-SportItem" style="stroke:#181818;stroke-width:1.0;"/><polygon fill="none" points="1544,321.43,1538,339.43,1550,339.43,1544,321.43" style="stroke:#181818;stroke-width:1.0;"/></g><!--link SportItem to SportItemKind--><g id="link_SportItem_SportItemKind"><path codeLine="69" d="M1544,447.11 C1544,464.72 1544,480.94 1544,500.75 " fill="none" id="SportItem-to-SportItemKind" style="stroke:#181818;stroke-width:1.0;"/><polygon fill="#181818" points="1544,506.75,1548,497.75,1544,501.75,1540,497.75,1544,506.75" style="stroke:#181818;stroke-width:1.0;"/><text fill="#000000" font-family="sans-serif" font-size="13" lengthAdjust="spacing" textLength="26" x="1516.1719" y="496.0202">Kind</text></g><!--SRC=[dLHDRzGm4BtxLup29TKc4hr6OIMe0AreqOgs4d2XtiIih2RsolPMe2N_dR7Zf77gxLSESJmpRpxUSrmrL6jOAxbLj8K30NnoE6X33QywkA1Sf2TGm9tazTovbhjzGmtxGFKjC-d6BSMgtnu3VMEjl6ChmrfzBGnlPh0C35LRPjQALwpWucWU313cySeT6UQI-HAItlk9LaQglma4Mq8tsYZyXieH4ZWzBGiu354Td2c6apjgV5aiDyNQ2KVWcTmBWw7OCfGbZhTSughjYh098BUDsgy4x9iWWAdVj6935P_oVLsd70CA6nLGzDbpvrf3k3Fsf4SGGy_9wgFOjqpHJSDkJfFoQec5EZ8K7TlIfNqlapd0fpddBTQeWrONeJLjwH-Rmr7Y1FPH5nDxI9KFY4wsE3vRxuupDSvzphMP3FmiDif_UHuEHSB17Ls_d7Q2Dhrn9CvNZ45Uod1uFdFagv92syCL8VCTdBxrd9GbCgOKhnc6HazocF_XmCDlqpTrBPgeyCTFwSlLlDVcrPBDsYJpjkLZiWrb7w2UgzmCDxzRNgL9FEVyCfjSHM_S9jqDjsi6WhQim70kjXdmUlf7EdsYl-9N1A6ZXyrygpeA2UQxafSEwYRiiunANkwa2c_FqV94tndSSb4NO_WNt9tOGs2JERv65xclulIpeGa4IC9GnD3aE_gUkUL7l_pCIFSV]--></g></svg>